HIERARCHY
ROOT joint_Root
{
	OFFSET 0.0 0.0 0.0
	CHANNELS 6 Xposition Yposition Zposition Zrotation Xrotation Yrotation 
	JOINT Hips
	{
		OFFSET -0.726466 93.3139 -2.00062
		CHANNELS 6 Xposition Yposition Zposition Zrotation Xrotation Yrotation 
		JOINT Spine
		{
			OFFSET 15.7357 0.0 0.0
			CHANNELS 6 Xposition Yposition Zposition Zrotation Xrotation Yrotation 
			JOINT Chest
			{
				OFFSET 8.98455 -0.406207 0.0
				CHANNELS 6 Xposition Yposition Zposition Zrotation Xrotation Yrotation 
				JOINT Neck
				{
					OFFSET 16.3773 0.0 0.0
					CHANNELS 6 Xposition Yposition Zposition Zrotation Xrotation Yrotation 
					JOINT Head
					{
						OFFSET 6.45672 0.0 0.0
						CHANNELS 6 Xposition Yposition Zposition Zrotation Xrotation Yrotation 
						End Site
						{
							OFFSET 0.0 0.0 0.0
						}
					}
				}
				JOINT Shoulder_L
				{
					OFFSET 12.9942 -0.242716 4.98039
					CHANNELS 6 Xposition Yposition Zposition Zrotation Xrotation Yrotation 
					JOINT UpperArm_L
					{
						OFFSET 5.34809 0.0 0.0
						CHANNELS 6 Xposition Yposition Zposition Zrotation Xrotation Yrotation 
						JOINT LowerArm_L
						{
							OFFSET 24.3286 1.87007e-05 0.0
							CHANNELS 6 Xposition Yposition Zposition Zrotation Xrotation Yrotation 
							JOINT Hand_L
							{
								OFFSET 22.2916 0.0 0.0
								CHANNELS 6 Xposition Yposition Zposition Zrotation Xrotation Yrotation 
								End Site
								{
									OFFSET 0.0 0.0 0.0
								}
							}
						}
					}
				}
				JOINT Shoulder_R
				{
					OFFSET 12.9945 -0.242716 -4.98039
					CHANNELS 6 Xposition Yposition Zposition Zrotation Xrotation Yrotation 
					JOINT UpperArm_R
					{
						OFFSET -5.34813 0.0 0.0
						CHANNELS 6 Xposition Yposition Zposition Zrotation Xrotation Yrotation 
						JOINT LowerArm_R
						{
							OFFSET -24.3289 0.000322201 0.0
							CHANNELS 6 Xposition Yposition Zposition Zrotation Xrotation Yrotation 
							JOINT Hand_R
							{
								OFFSET -22.2915 -0.000108084 0.0
								CHANNELS 6 Xposition Yposition Zposition Zrotation Xrotation Yrotation 
								End Site
								{
									OFFSET 0.0 0.0 0.0
								}
							}
						}
					}
				}
			}
		}
		JOINT UpperLeg_L
		{
			OFFSET -2.19248 -6.46944 0.0
			CHANNELS 6 Xposition Yposition Zposition Zrotation Xrotation Yrotation 
			JOINT LowerLeg_L
			{
				OFFSET 39.0811 0.0 -1.23785e-05
				CHANNELS 6 Xposition Yposition Zposition Zrotation Xrotation Yrotation 
				JOINT Foot_L
				{
					OFFSET 40.9854 0.0 -1.26872e-05
					CHANNELS 6 Xposition Yposition Zposition Zrotation Xrotation Yrotation 
					JOINT Toes_L
					{
						OFFSET 11.7543 0.0 0.0
						CHANNELS 6 Xposition Yposition Zposition Zrotation Xrotation Yrotation 
						End Site
						{
							OFFSET 0.0 0.0 0.0
						}
					}
				}
			}
		}
		JOINT UpperLeg_R
		{
			OFFSET -2.19251 6.46944 0.0
			CHANNELS 6 Xposition Yposition Zposition Zrotation Xrotation Yrotation 
			JOINT LowerLeg_R
			{
				OFFSET -39.0811 -0.00228153 -0.0401928
				CHANNELS 6 Xposition Yposition Zposition Zrotation Xrotation Yrotation 
				JOINT Foot_R
				{
					OFFSET -40.9854 0.0 0.0
					CHANNELS 6 Xposition Yposition Zposition Zrotation Xrotation Yrotation 
					JOINT Toes_R
					{
						OFFSET -11.7543 0.0 0.0
						CHANNELS 6 Xposition Yposition Zposition Zrotation Xrotation Yrotation 
						End Site
						{
							OFFSET 0.0 0.0 0.0
						}
					}
				}
			}
		}
	}
}
MOTION
Frames:	6
Frame Time:	0.0333333
0.000000 0.000000 0.000000 0.000000 0.000000 -0.000000 0.725254 92.376300 -2.844770 87.518000 -2.953510 5.412980 15.735700 0.000005 -0.000001 90.669200 85.369500 -91.345800 8.984550 -0.406207 -0.000000 1.495470 0.145122 -1.353940 16.377300 -0.000001 -0.000001 3.773290 -2.031710 1.889870 6.456720 -0.000001 -0.000000 4.502390 -2.480560 -3.083330 12.994200 -0.242716 4.980390 -89.900700 -0.314774 -72.489000 5.348090 -0.000007 -0.000001 -66.434800 39.425100 -12.997100 24.328600 0.000019 0.000005 1.693640 4.599940 -20.237900 22.291600 -0.000001 0.000005 4.450750 5.495340 -6.346720 12.994500 -0.242716 -4.980390 90.194400 -0.592122 -71.819300 -5.348130 -0.000001 -0.000004 -75.106200 -26.923700 -96.314800 -24.328900 0.000322 -0.000009 10.033000 0.896373 -84.949000 -22.291500 -0.000108 -0.000004 20.949400 5.402380 -3.014930 -2.192480 -6.469440 -0.000000 -176.205000 -5.625950 -2.453880 39.081100 -0.000007 -0.000012 -0.067585 0.154641 23.607700 40.985400 -0.000006 -0.000013 0.649676 1.853870 -65.960400 11.754300 -0.000000 0.000003 -0.000043 -0.000500 -16.597000 -2.192510 6.469440 -0.000001 179.520000 12.091300 -179.544000 -39.081100 -0.002282 -0.040193 0.011852 -0.024147 19.454600 -40.985400 0.000008 0.000006 3.813470 7.206810 -64.948800 -11.754300 -0.000006 -0.000006 -0.006880 -0.078631 -19.774000
0.000000 0.000000 0.000000 0.000000 0.000000 -0.000000 0.733774 92.373500 -2.837770 87.520500 -2.905980 5.448330 15.735700 0.000005 -0.000001 90.658300 85.327200 -91.305300 8.984550 -0.406207 -0.000000 1.580050 0.142229 -1.294770 16.377300 -0.000001 -0.000001 3.809400 -2.079060 1.872870 6.456720 -0.000001 -0.000000 4.463050 -2.502950 -3.138630 12.994200 -0.242716 4.980390 -89.920900 -0.250761 -72.500900 5.348090 -0.000007 -0.000001 -66.101000 39.386000 -13.350600 24.328600 0.000019 0.000005 1.627060 4.370260 -20.443300 22.291600 -0.000001 0.000005 4.559880 5.497580 -6.436150 12.994500 -0.242716 -4.980390 90.137200 -0.416100 -71.748700 -5.348130 -0.000001 -0.000004 -73.678900 -27.012100 -94.420300 -24.328900 0.000322 -0.000009 9.221090 0.608326 -86.261400 -22.291500 -0.000108 -0.000004 20.786300 5.400180 -2.943630 -2.192480 -6.469440 -0.000000 -176.208000 -5.629230 -2.415840 39.081100 -0.000007 -0.000012 -0.067400 0.154142 23.618000 40.985400 -0.000006 -0.000013 0.665622 1.893360 -65.976800 11.754300 -0.000000 0.000003 -0.000045 -0.000517 -16.597700 -2.192510 6.469440 -0.000001 179.497000 12.136700 -179.503000 -39.081100 -0.002282 -0.040193 0.012268 -0.025302 19.471800 -40.985400 0.000008 0.000006 3.836830 7.216970 -64.974400 -11.754300 -0.000006 -0.000006 -0.006860 -0.078453 -19.766800
0.000000 0.000000 0.000000 0.000000 0.000000 -0.000000 0.741751 92.370300 -2.816620 87.517200 -2.924040 5.485320 15.735700 0.000005 -0.000001 90.549500 85.277600 -91.161500 8.984550 -0.406207 -0.000000 1.679280 0.123025 -1.224530 16.377300 -0.000001 -0.000001 3.840060 -2.077200 1.898460 6.456720 -0.000001 -0.000000 4.454470 -2.466300 -3.209080 12.994200 -0.242716 4.980390 -89.935200 -0.205301 -72.478700 5.348090 -0.000007 -0.000001 -65.870400 39.409300 -13.748300 24.328600 0.000019 0.000005 1.604070 4.267610 -20.621600 22.291600 -0.000001 0.000005 4.523890 5.500480 -6.552740 12.994500 -0.242716 -4.980390 90.058100 -0.176408 -71.779300 -5.348130 -0.000001 -0.000004 -71.552100 -26.962200 -91.487700 -24.328900 0.000322 -0.000009 8.369420 0.267460 -88.186800 -22.291500 -0.000108 -0.000004 20.721200 5.399420 -2.918590 -2.192480 -6.469440 -0.000000 -176.197000 -5.650230 -2.367230 39.081100 -0.000007 -0.000012 -0.067733 0.154806 23.630900 40.985400 -0.000006 -0.000013 0.672839 1.921120 -66.000300 11.754300 -0.000000 0.000003 -0.000044 -0.000502 -16.597100 -2.192510 6.469440 -0.000001 179.487000 12.120300 -179.463000 -39.081100 -0.002282 -0.040193 0.012888 -0.027023 19.492400 -40.985400 0.000008 0.000006 3.877300 7.211510 -65.002900 -11.754300 -0.000006 -0.000006 -0.007000 -0.079661 -19.816000
0.000000 0.000000 0.000000 0.000000 0.000000 -0.000000 0.755278 92.361700 -2.803270 87.524600 -2.909040 5.482010 15.735700 0.000005 -0.000001 90.205000 85.260900 -90.792200 8.984550 -0.406207 -0.000000 1.712740 0.064894 -1.174380 16.377300 -0.000001 -0.000001 3.868870 -2.096030 1.852000 6.456720 -0.000001 -0.000000 4.575810 -2.434100 -3.123220 12.994200 -0.242716 4.980390 -89.949500 -0.159977 -72.479100 5.348090 -0.000007 -0.000001 -65.766700 39.525100 -13.985000 24.328600 0.000019 0.000005 1.558640 4.080210 -20.927200 22.291600 -0.000001 0.000005 4.562730 5.502510 -6.634590 12.994500 -0.242716 -4.980390 89.945500 0.165982 -71.815300 -5.348130 -0.000001 -0.000004 -68.671900 -26.470400 -87.301500 -24.328900 0.000322 -0.000009 7.195270 -0.092362 -90.737100 -22.291500 -0.000108 -0.000004 20.491600 5.400110 -2.941190 -2.192480 -6.469440 -0.000000 -176.226000 -5.619630 -2.396270 39.081100 -0.000007 -0.000012 -0.066899 0.152514 23.684500 40.985400 -0.000006 -0.000013 0.678783 1.873250 -66.030500 11.754300 -0.000000 0.000003 -0.000047 -0.000537 -16.598400 -2.192510 6.469440 -0.000001 179.455000 12.109300 -179.473000 -39.081100 -0.002282 -0.040193 0.010089 -0.019080 19.527800 -40.985400 0.000008 0.000006 3.726480 7.225940 -65.007800 -11.754300 -0.000006 -0.000006 -0.006723 -0.077263 -19.718200
0.000000 0.000000 0.000000 0.000000 0.000000 -0.000000 0.761920 92.352200 -2.781510 87.537500 -2.909590 5.541620 15.735700 0.000005 -0.000001 89.565500 85.218100 -90.126000 8.984550 -0.406207 -0.000000 1.797580 -0.043299 -1.119300 16.377300 -0.000001 -0.000001 3.925550 -2.121270 1.800000 6.456720 -0.000001 -0.000000 4.669210 -2.426360 -3.039060 12.994200 -0.242716 4.980390 -89.970300 -0.094012 -72.470800 5.348090 -0.000007 -0.000001 -65.736500 39.788100 -14.184300 24.328600 0.000019 0.000005 1.544430 3.977410 -21.240800 22.291600 -0.000001 0.000005 4.563280 5.503610 -6.679490 12.994500 -0.242716 -4.980390 89.785800 0.657861 -71.964900 -5.348130 -0.000001 -0.000004 -64.685600 -25.478500 -81.931600 -24.328900 0.000322 -0.000009 5.775430 -0.360052 -93.560300 -22.291500 -0.000108 -0.000004 20.247800 5.404960 -3.099490 -2.192480 -6.469440 -0.000000 -176.227000 -5.676910 -2.336510 39.081100 -0.000007 -0.000012 -0.067116 0.152712 23.725300 40.985400 -0.000006 -0.000013 0.692243 1.917740 -66.071600 11.754300 -0.000000 0.000003 -0.000043 -0.000501 -16.597000 -2.192510 6.469440 -0.000001 179.417000 12.113700 -179.433000 -39.081100 -0.002282 -0.040193 0.008308 -0.014001 19.600200 -40.985400 0.000008 0.000006 3.712910 7.213330 -65.055200 -11.754300 -0.000006 -0.000006 -0.006816 -0.078074 -19.751300
0.000000 0.000000 0.000000 0.000000 0.000000 -0.000000 0.766050 92.345500 -2.752480 87.547400 -2.966420 5.598530 15.735700 0.000005 -0.000001 89.107800 85.187500 -89.639200 8.984550 -0.406207 -0.000000 1.857540 -0.122392 -1.059730 16.377300 -0.000001 -0.000001 3.929690 -2.184530 1.746310 6.456720 -0.000001 -0.000000 4.827860 -2.464870 -2.913120 12.994200 -0.242716 4.980390 -89.994100 -0.018610 -72.439700 5.348090 -0.000007 -0.000001 -65.797900 40.114100 -14.336600 24.328600 0.000019 0.000005 1.472200 3.742330 -21.491700 22.291600 -0.000001 0.000005 4.431560 5.505050 -6.737910 12.994500 -0.242716 -4.980390 89.619600 1.183140 -72.175300 -5.348130 -0.000001 -0.000004 -59.801200 -23.561700 -75.382200 -24.328900 0.000322 -0.000009 4.639410 -0.528836 -96.492800 -22.291500 -0.000108 -0.000004 20.127800 5.414450 -3.413690 -2.192480 -6.469440 -0.000000 -176.218000 -5.736100 -2.242600 39.081100 -0.000007 -0.000012 -0.069108 0.157161 23.736400 40.985400 -0.000006 -0.000013 0.697335 1.946630 -66.116200 11.754300 -0.000000 0.000003 -0.000043 -0.000500 -16.597000 -2.192510 6.469440 -0.000001 179.377000 12.057700 -179.367000 -39.081100 -0.002282 -0.040193 0.006871 -0.009953 19.622900 -40.985400 0.000008 0.000006 3.616710 7.265790 -65.072000 -11.754300 -0.000006 -0.000006 -0.006863 -0.078487 -19.768100
